<svg width="52" height="50" viewBox="0 0 52 50" fill="none" xmlns="http://www.w3.org/2000/svg">
<path d="M43.184 3.125H7.99702C6.72445 3.125 5.504 3.61886 4.60416 4.49794C3.70432 5.37701 3.19879 6.5693 3.19879 7.8125L3.19879 42.1875C3.19879 43.4307 3.70432 44.623 4.60416 45.5021C5.504 46.3811 6.72445 46.875 7.99702 46.875H21.717V32.001H15.4193V25H21.717V19.6641C21.717 13.5947 25.4156 10.2422 31.0805 10.2422C33.7935 10.2422 36.6304 10.7148 36.6304 10.7148V16.6719H33.5046C30.4247 16.6719 29.4641 18.5391 29.4641 20.4541V25H36.3396L35.24 32.001H29.4641V46.875H43.184C44.4566 46.875 45.677 46.3811 46.5769 45.5021C47.4767 44.623 47.9823 43.4307 47.9823 42.1875V7.8125C47.9823 6.5693 47.4767 5.37701 46.5769 4.49794C45.677 3.61886 44.4566 3.125 43.184 3.125Z" fill="#306C84"/>
</svg>
