<svg width="52" height="50" viewBox="0 0 52 50" fill="none" xmlns="http://www.w3.org/2000/svg">
<path d="M26.01 13.769C19.6523 13.769 14.5242 18.7788 14.5242 24.9897C14.5242 31.2007 19.6523 36.2104 26.01 36.2104C32.3676 36.2104 37.4958 31.2007 37.4958 24.9897C37.4958 18.7788 32.3676 13.769 26.01 13.769ZM26.01 32.2847C21.9015 32.2847 18.5428 29.0132 18.5428 24.9897C18.5428 20.9663 21.8915 17.6948 26.01 17.6948C30.1285 17.6948 33.4772 20.9663 33.4772 24.9897C33.4772 29.0132 30.1185 32.2847 26.01 32.2847ZM40.6446 13.3101C40.6446 14.7651 39.445 15.9272 37.9656 15.9272C36.4761 15.9272 35.2866 14.7554 35.2866 13.3101C35.2866 11.8647 36.4861 10.6929 37.9656 10.6929C39.445 10.6929 40.6446 11.8647 40.6446 13.3101ZM48.2518 15.9663C48.0818 12.4604 47.2621 9.35498 44.6331 6.79639C42.0141 4.23779 38.8353 3.43701 35.2466 3.26123C31.548 3.05615 20.462 3.05615 16.7634 3.26123C13.1847 3.42725 10.0059 4.22803 7.37687 6.78662C4.74785 9.34521 3.93814 12.4507 3.75821 15.9565C3.54829 19.5698 3.54829 30.3999 3.75821 34.0132C3.92815 37.519 4.74785 40.6245 7.37687 43.1831C10.0059 45.7417 13.1747 46.5425 16.7634 46.7183C20.462 46.9233 31.548 46.9233 35.2466 46.7183C38.8353 46.5522 42.0141 45.7515 44.6331 43.1831C47.2522 40.6245 48.0718 37.519 48.2518 34.0132C48.4617 30.3999 48.4617 19.5796 48.2518 15.9663ZM43.4735 37.8901C42.6938 39.8042 41.1844 41.2788 39.2151 42.0503C36.2662 43.1929 29.2688 42.9292 26.01 42.9292C22.7512 42.9292 15.7438 43.1831 12.8049 42.0503C10.8456 41.2886 9.33615 39.814 8.54644 37.8901C7.37688 35.0093 7.64678 28.1733 7.64678 24.9897C7.64678 21.8062 7.38687 14.9604 8.54644 12.0894C9.32616 10.1753 10.8356 8.70068 12.8049 7.9292C15.7538 6.78662 22.7512 7.05029 26.01 7.05029C29.2688 7.05029 36.2762 6.79639 39.2151 7.9292C41.1744 8.69092 42.6838 10.1655 43.4735 12.0894C44.6431 14.9702 44.3732 21.8062 44.3732 24.9897C44.3732 28.1733 44.6431 35.019 43.4735 37.8901Z" fill="#306C84"/>
</svg>
