<svg width="52" height="50" viewBox="0 0 52 50" fill="none" xmlns="http://www.w3.org/2000/svg">
<path d="M45.6023 3.125H7.20652C5.44717 3.125 4.0177 4.54102 4.0177 6.2793V43.7207C4.0177 45.459 5.44717 46.875 7.20652 46.875H45.6023C47.3617 46.875 48.8012 45.459 48.8012 43.7207V6.2793C48.8012 4.54102 47.3617 3.125 45.6023 3.125ZM17.5527 40.625H10.9152V19.7461H17.5627V40.625H17.5527ZM14.2339 16.8945C12.1047 16.8945 10.3853 15.2051 10.3853 13.1348C10.3853 11.0645 12.1047 9.375 14.2339 9.375C16.3531 9.375 18.0825 11.0645 18.0825 13.1348C18.0825 15.2148 16.3631 16.8945 14.2339 16.8945ZM42.4335 40.625H35.796V30.4688C35.796 28.0469 35.746 24.9316 32.3472 24.9316C28.8885 24.9316 28.3587 27.5684 28.3587 30.293V40.625H21.7212V19.7461H28.0888V22.5977H28.1788C29.0685 20.957 31.2376 19.2285 34.4665 19.2285C41.184 19.2285 42.4335 23.5547 42.4335 29.1797V40.625Z" fill="#306C84"/>
</svg>
