<svg width="171" height="170" viewBox="0 0 171 170" fill="none" xmlns="http://www.w3.org/2000/svg">
<g filter="url(#filter0_d_4_44)">
<ellipse cx="85.13" cy="81" rx="81" ry="81" fill="#3D8DAE"/>
</g>
<mask id="path-2-outside-1_4_44" maskUnits="userSpaceOnUse" x="39.6299" y="35.4999" width="91" height="91" fill="black">
<rect fill="white" x="39.6299" y="35.4999" width="91" height="91"/>
<path d="M85.13 40.4999C94.4999 40.4999 103.58 43.7488 110.823 49.693C118.066 55.6372 123.024 63.9089 124.852 73.0988C126.68 82.2886 125.265 91.828 120.848 100.092C116.431 108.355 109.285 114.831 100.629 118.417C91.972 122.003 82.3399 122.476 73.3734 119.756C64.407 117.036 56.6611 111.291 51.4555 103.501C46.2498 95.7097 43.9066 86.355 44.825 77.0302C45.7434 67.7055 49.8666 58.9876 56.4922 52.3621L67.9473 63.8172C63.972 67.7925 61.498 73.0233 60.947 78.6181C60.3959 84.213 61.8019 89.8258 64.9253 94.5003C68.0486 99.1748 72.6962 102.622 78.0761 104.254C83.4559 105.886 89.2352 105.602 94.4292 103.45C99.6232 101.299 103.911 97.413 106.561 92.4549C109.211 87.4968 110.06 81.7732 108.963 76.2592C107.866 70.7453 104.892 65.7823 100.546 62.2158C96.1999 58.6493 90.7519 56.6999 85.13 56.6999L85.13 40.4999Z"/>
</mask>
<path d="M85.13 40.4999C94.4999 40.4999 103.58 43.7488 110.823 49.693C118.066 55.6372 123.024 63.9089 124.852 73.0988C126.68 82.2886 125.265 91.828 120.848 100.092C116.431 108.355 109.285 114.831 100.629 118.417C91.972 122.003 82.3399 122.476 73.3734 119.756C64.407 117.036 56.6611 111.291 51.4555 103.501C46.2498 95.7097 43.9066 86.355 44.825 77.0302C45.7434 67.7055 49.8666 58.9876 56.4922 52.3621L67.9473 63.8172C63.972 67.7925 61.498 73.0233 60.947 78.6181C60.3959 84.213 61.8019 89.8258 64.9253 94.5003C68.0486 99.1748 72.6962 102.622 78.0761 104.254C83.4559 105.886 89.2352 105.602 94.4292 103.45C99.6232 101.299 103.911 97.413 106.561 92.4549C109.211 87.4968 110.06 81.7732 108.963 76.2592C107.866 70.7453 104.892 65.7823 100.546 62.2158C96.1999 58.6493 90.7519 56.6999 85.13 56.6999L85.13 40.4999Z" fill="#F8F8F8"/>
<path d="M85.13 40.4999L85.13 36.4499L81.08 36.4499L81.08 40.4999L85.13 40.4999ZM110.823 49.693L113.392 46.5623L110.823 49.693ZM124.852 73.0988L128.824 72.3087L124.852 73.0988ZM100.629 118.417L102.179 122.159L100.629 118.417ZM73.3734 119.756L72.1978 123.632L73.3734 119.756ZM51.4555 103.501L48.088 105.751L51.4555 103.501ZM44.825 77.0302L40.7945 76.6333L44.825 77.0302ZM56.4922 52.3621L59.3559 49.4983L56.4922 46.6345L53.6284 49.4983L56.4922 52.3621ZM67.9473 63.8172L70.8111 66.681L73.6749 63.8172L70.8111 60.9535L67.9473 63.8172ZM64.9253 94.5003L61.5578 96.7503L64.9253 94.5003ZM78.0761 104.254L76.9004 108.129L78.0761 104.254ZM94.4292 103.45L92.8793 99.7085L94.4292 103.45ZM106.561 92.4549L110.132 94.364L106.561 92.4549ZM108.963 76.2592L104.991 77.0494L108.963 76.2592ZM100.546 62.2158L103.115 59.0851L100.546 62.2158ZM85.13 56.6999L81.08 56.6999L81.08 60.7499L85.13 60.7499L85.13 56.6999ZM85.13 44.5499C93.5629 44.5499 101.735 47.4739 108.254 52.8237L113.392 46.5623C105.425 40.0237 95.4369 36.4499 85.13 36.4499L85.13 44.5499ZM108.254 52.8237C114.772 58.1735 119.234 65.618 120.88 73.8889L128.824 72.3087C126.813 62.1998 121.36 53.1009 113.392 46.5623L108.254 52.8237ZM120.88 73.8889C122.525 82.1598 121.251 90.7452 117.276 98.1824L124.42 102.001C129.278 92.9108 130.835 82.4175 128.824 72.3087L120.88 73.8889ZM117.276 98.1824C113.301 105.62 106.87 111.448 99.0788 114.675L102.179 122.159C111.701 118.215 119.561 111.091 124.42 102.001L117.276 98.1824ZM99.0788 114.675C91.2878 117.902 82.6189 118.328 74.5491 115.88L72.1978 123.632C82.0609 126.624 92.6562 126.103 102.179 122.159L99.0788 114.675ZM74.5491 115.88C66.4793 113.432 59.508 108.262 54.8229 101.25L48.088 105.751C53.8142 114.32 62.3347 120.64 72.1978 123.632L74.5491 115.88ZM54.8229 101.25C50.1378 94.2388 48.0289 85.8195 48.8555 77.4272L40.7945 76.6333C39.7842 86.8905 42.3618 97.1807 48.088 105.751L54.8229 101.25ZM48.8555 77.4272C49.6821 69.0349 53.393 61.1888 59.3559 55.2259L53.6284 49.4983C46.3403 56.7864 41.8048 66.376 40.7945 76.6333L48.8555 77.4272ZM53.6284 55.2259L65.0835 66.681L70.8111 60.9535L59.3559 49.4983L53.6284 55.2259ZM65.0835 60.9535C60.4456 65.5913 57.5594 71.6938 56.9165 78.2211L64.9775 79.0151C65.4367 74.3527 67.4983 69.9938 70.8111 66.681L65.0835 60.9535ZM56.9165 78.2211C56.2736 84.7485 57.9139 91.2968 61.5578 96.7503L68.2927 92.2502C65.6899 88.3548 64.5183 83.6775 64.9775 79.0151L56.9165 78.2211ZM61.5578 96.7503C65.2018 102.204 70.6239 106.225 76.9004 108.129L79.2517 100.378C74.7685 99.018 70.8955 96.1456 68.2927 92.2502L61.5578 96.7503ZM76.9004 108.129C83.1769 110.033 89.9194 109.702 95.9791 107.192L92.8793 99.7085C88.551 101.501 83.7349 101.738 79.2517 100.378L76.9004 108.129ZM95.9791 107.192C102.039 104.682 107.041 100.148 110.132 94.364L102.989 90.5457C100.78 94.6775 97.2076 97.9157 92.8793 99.7085L95.9791 107.192ZM110.132 94.364C113.224 88.5796 114.215 81.902 112.935 75.4691L104.991 77.0494C105.905 81.6443 105.197 86.414 102.989 90.5457L110.132 94.364ZM112.935 75.4691C111.656 69.0362 108.185 63.246 103.115 59.0851L97.9764 65.3465C101.598 68.3186 104.077 72.4544 104.991 77.0494L112.935 75.4691ZM103.115 59.0851C98.0449 54.9242 91.6889 52.6499 85.13 52.6499L85.13 60.7499C89.8149 60.7499 94.3549 62.3744 97.9764 65.3465L103.115 59.0851ZM89.18 56.6999L89.18 40.4999L81.08 40.4999L81.08 56.6999L89.18 56.6999Z" fill="#F8F8F8" mask="url(#path-2-outside-1_4_44)"/>
<path d="M85.13 81.0002L56.78 52.6502" stroke="#F8F8F8" stroke-width="8.1" stroke-linecap="round"/>
<defs>
<filter id="filter0_d_4_44" x="0.130005" y="0" width="170" height="170" filterUnits="userSpaceOnUse" color-interpolation-filters="sRGB">
<feFlood flood-opacity="0" result="BackgroundImageFix"/>
<feColorMatrix in="SourceAlpha" type="matrix" values="0 0 0 0 0 0 0 0 0 0 0 0 0 0 0 0 0 0 127 0" result="hardAlpha"/>
<feOffset dy="4"/>
<feGaussianBlur stdDeviation="2"/>
<feComposite in2="hardAlpha" operator="out"/>
<feColorMatrix type="matrix" values="0 0 0 0 0 0 0 0 0 0 0 0 0 0 0 0 0 0 0.25 0"/>
<feBlend mode="normal" in2="BackgroundImageFix" result="effect1_dropShadow_4_44"/>
<feBlend mode="normal" in="SourceGraphic" in2="effect1_dropShadow_4_44" result="shape"/>
</filter>
</defs>
</svg>
